<mxfile host="Electron" agent="Mozilla/5.0 (Windows NT 10.0; Win64; x64) AppleWebKit/537.36 (KHTML, like Gecko) draw.io/26.0.4 Chrome/128.0.6613.186 Electron/32.2.5 Safari/537.36" version="26.0.4">
  <diagram name="Диаграмма последовательности" id="OLBhM4z4XVvppDR7rwe6">
    <mxGraphModel dx="1688" dy="1607" grid="1" gridSize="10" guides="1" tooltips="1" connect="1" arrows="1" fold="1" page="1" pageScale="1" pageWidth="850" pageHeight="1100" math="0" shadow="0">
      <root>
        <mxCell id="0" />
        <mxCell id="1" parent="0" />
        <mxCell id="0o3JyBKIMg1bbvVS_Xob-26" value="Player" style="shape=umlLifeline;perimeter=lifelinePerimeter;whiteSpace=wrap;html=1;container=1;dropTarget=0;collapsible=0;recursiveResize=0;outlineConnect=0;portConstraint=eastwest;newEdgeStyle={&quot;curved&quot;:0,&quot;rounded&quot;:0};" parent="1" vertex="1">
          <mxGeometry x="70" y="1230" width="100" height="570" as="geometry" />
        </mxCell>
        <mxCell id="0o3JyBKIMg1bbvVS_Xob-27" value="Game-Server" style="shape=umlLifeline;perimeter=lifelinePerimeter;whiteSpace=wrap;html=1;container=1;dropTarget=0;collapsible=0;recursiveResize=0;outlineConnect=0;portConstraint=eastwest;newEdgeStyle={&quot;curved&quot;:0,&quot;rounded&quot;:0};" parent="1" vertex="1">
          <mxGeometry x="335" y="1230" width="100" height="570" as="geometry" />
        </mxCell>
        <mxCell id="mNiH6PMDi3BtDX4whLDb-1" value="AuthMessage" style="html=1;verticalAlign=bottom;endArrow=open;curved=0;rounded=0;endFill=0;" edge="1" parent="0o3JyBKIMg1bbvVS_Xob-27" target="0o3JyBKIMg1bbvVS_Xob-27">
          <mxGeometry x="-0.0196" width="80" relative="1" as="geometry">
            <mxPoint x="-215" y="280" as="sourcePoint" />
            <mxPoint x="35" y="280" as="targetPoint" />
            <mxPoint as="offset" />
          </mxGeometry>
        </mxCell>
        <mxCell id="0o3JyBKIMg1bbvVS_Xob-31" value="" style="html=1;points=[[0,0,0,0,5],[0,1,0,0,-5],[1,0,0,0,5],[1,1,0,0,-5]];perimeter=orthogonalPerimeter;outlineConnect=0;targetShapes=umlLifeline;portConstraint=eastwest;newEdgeStyle={&quot;curved&quot;:0,&quot;rounded&quot;:0};" parent="0o3JyBKIMg1bbvVS_Xob-27" vertex="1">
          <mxGeometry x="-220" y="60" width="10" height="190" as="geometry" />
        </mxCell>
        <mxCell id="0o3JyBKIMg1bbvVS_Xob-32" value="" style="html=1;points=[[0,0,0,0,5],[0,1,0,0,-5],[1,0,0,0,5],[1,1,0,0,-5]];perimeter=orthogonalPerimeter;outlineConnect=0;targetShapes=umlLifeline;portConstraint=eastwest;newEdgeStyle={&quot;curved&quot;:0,&quot;rounded&quot;:0};" parent="0o3JyBKIMg1bbvVS_Xob-27" vertex="1">
          <mxGeometry x="45" y="160" width="10" height="90" as="geometry" />
        </mxCell>
        <mxCell id="0o3JyBKIMg1bbvVS_Xob-28" value="" style="endArrow=block;startArrow=block;endFill=1;startFill=1;html=1;rounded=0;" parent="0o3JyBKIMg1bbvVS_Xob-27" edge="1">
          <mxGeometry width="160" relative="1" as="geometry">
            <mxPoint x="-210" y="230" as="sourcePoint" />
            <mxPoint x="45" y="230" as="targetPoint" />
          </mxGeometry>
        </mxCell>
        <mxCell id="0o3JyBKIMg1bbvVS_Xob-29" value="WebSocket-соединение установлено" style="edgeLabel;html=1;align=center;verticalAlign=middle;resizable=0;points=[];" parent="0o3JyBKIMg1bbvVS_Xob-28" vertex="1" connectable="0">
          <mxGeometry x="-0.19" y="1" relative="1" as="geometry">
            <mxPoint x="23" y="12" as="offset" />
          </mxGeometry>
        </mxCell>
        <mxCell id="mNiH6PMDi3BtDX4whLDb-20" value="" style="html=1;points=[[0,0,0,0,5],[0,1,0,0,-5],[1,0,0,0,5],[1,1,0,0,-5]];perimeter=orthogonalPerimeter;outlineConnect=0;targetShapes=umlLifeline;portConstraint=eastwest;newEdgeStyle={&quot;curved&quot;:0,&quot;rounded&quot;:0};" vertex="1" parent="0o3JyBKIMg1bbvVS_Xob-27">
          <mxGeometry x="45" y="60" width="10" height="70" as="geometry" />
        </mxCell>
        <mxCell id="0o3JyBKIMg1bbvVS_Xob-6" value="Player" style="shape=umlLifeline;perimeter=lifelinePerimeter;whiteSpace=wrap;html=1;container=1;dropTarget=0;collapsible=0;recursiveResize=0;outlineConnect=0;portConstraint=eastwest;newEdgeStyle={&quot;curved&quot;:0,&quot;rounded&quot;:0};" parent="1" vertex="1">
          <mxGeometry x="70" y="80" width="100" height="200" as="geometry" />
        </mxCell>
        <mxCell id="0o3JyBKIMg1bbvVS_Xob-18" value="Auth-Server" style="shape=umlLifeline;perimeter=lifelinePerimeter;whiteSpace=wrap;html=1;container=1;dropTarget=0;collapsible=0;recursiveResize=0;outlineConnect=0;portConstraint=eastwest;newEdgeStyle={&quot;curved&quot;:0,&quot;rounded&quot;:0};" parent="1" vertex="1">
          <mxGeometry x="590" y="80" width="100" height="200" as="geometry" />
        </mxCell>
        <mxCell id="0o3JyBKIMg1bbvVS_Xob-7" value="Game-Server" style="shape=umlLifeline;perimeter=lifelinePerimeter;whiteSpace=wrap;html=1;container=1;dropTarget=0;collapsible=0;recursiveResize=0;outlineConnect=0;portConstraint=eastwest;newEdgeStyle={&quot;curved&quot;:0,&quot;rounded&quot;:0};" parent="1" vertex="1">
          <mxGeometry x="310" y="80" width="100" height="200" as="geometry" />
        </mxCell>
        <mxCell id="0o3JyBKIMg1bbvVS_Xob-14" value="" style="html=1;points=[[0,0,0,0,5],[0,1,0,0,-5],[1,0,0,0,5],[1,1,0,0,-5]];perimeter=orthogonalPerimeter;outlineConnect=0;targetShapes=umlLifeline;portConstraint=eastwest;newEdgeStyle={&quot;curved&quot;:0,&quot;rounded&quot;:0};" parent="0o3JyBKIMg1bbvVS_Xob-7" vertex="1">
          <mxGeometry x="-195" y="70" width="10" height="90" as="geometry" />
        </mxCell>
        <mxCell id="0o3JyBKIMg1bbvVS_Xob-15" value="" style="html=1;points=[[0,0,0,0,5],[0,1,0,0,-5],[1,0,0,0,5],[1,1,0,0,-5]];perimeter=orthogonalPerimeter;outlineConnect=0;targetShapes=umlLifeline;portConstraint=eastwest;newEdgeStyle={&quot;curved&quot;:0,&quot;rounded&quot;:0};" parent="0o3JyBKIMg1bbvVS_Xob-7" vertex="1">
          <mxGeometry x="45" y="70" width="10" height="90" as="geometry" />
        </mxCell>
        <mxCell id="0o3JyBKIMg1bbvVS_Xob-16" value="AuthenticationRequest" style="html=1;verticalAlign=bottom;endArrow=block;curved=0;rounded=0;" parent="0o3JyBKIMg1bbvVS_Xob-7" target="0o3JyBKIMg1bbvVS_Xob-15" edge="1">
          <mxGeometry width="80" relative="1" as="geometry">
            <mxPoint x="-185" y="80" as="sourcePoint" />
            <mxPoint x="-105" y="80" as="targetPoint" />
          </mxGeometry>
        </mxCell>
        <mxCell id="0o3JyBKIMg1bbvVS_Xob-17" value="AuthenticationResponse" style="html=1;verticalAlign=bottom;endArrow=open;dashed=1;endSize=8;curved=0;rounded=0;entryX=1;entryY=1;entryDx=0;entryDy=-5;entryPerimeter=0;" parent="0o3JyBKIMg1bbvVS_Xob-7" edge="1">
          <mxGeometry relative="1" as="geometry">
            <mxPoint x="45" y="150" as="sourcePoint" />
            <mxPoint x="-185" y="150" as="targetPoint" />
          </mxGeometry>
        </mxCell>
        <mxCell id="0o3JyBKIMg1bbvVS_Xob-19" value="" style="html=1;points=[[0,0,0,0,5],[0,1,0,0,-5],[1,0,0,0,5],[1,1,0,0,-5]];perimeter=orthogonalPerimeter;outlineConnect=0;targetShapes=umlLifeline;portConstraint=eastwest;newEdgeStyle={&quot;curved&quot;:0,&quot;rounded&quot;:0};" parent="0o3JyBKIMg1bbvVS_Xob-7" vertex="1">
          <mxGeometry x="325" y="70" width="10" height="80" as="geometry" />
        </mxCell>
        <mxCell id="0o3JyBKIMg1bbvVS_Xob-20" value="AuthenticationRequest" style="html=1;verticalAlign=bottom;endArrow=block;curved=0;rounded=0;" parent="0o3JyBKIMg1bbvVS_Xob-7" target="0o3JyBKIMg1bbvVS_Xob-19" edge="1">
          <mxGeometry width="80" relative="1" as="geometry">
            <mxPoint x="55" y="90" as="sourcePoint" />
            <mxPoint x="310" y="90" as="targetPoint" />
          </mxGeometry>
        </mxCell>
        <mxCell id="0o3JyBKIMg1bbvVS_Xob-22" value="валидация данных" style="html=1;align=left;spacingLeft=2;endArrow=block;rounded=0;edgeStyle=orthogonalEdgeStyle;curved=0;rounded=0;" parent="0o3JyBKIMg1bbvVS_Xob-7" target="0o3JyBKIMg1bbvVS_Xob-19" edge="1">
          <mxGeometry relative="1" as="geometry">
            <mxPoint x="335" y="90" as="sourcePoint" />
            <Array as="points">
              <mxPoint x="370" y="90" />
              <mxPoint x="370" y="110" />
            </Array>
            <mxPoint x="370" y="120" as="targetPoint" />
          </mxGeometry>
        </mxCell>
        <mxCell id="0o3JyBKIMg1bbvVS_Xob-23" value="AuthenticationResponse" style="html=1;verticalAlign=bottom;endArrow=open;dashed=1;endSize=8;curved=0;rounded=0;exitX=0;exitY=1;exitDx=0;exitDy=-5;exitPerimeter=0;" parent="0o3JyBKIMg1bbvVS_Xob-7" source="0o3JyBKIMg1bbvVS_Xob-19" target="0o3JyBKIMg1bbvVS_Xob-15" edge="1">
          <mxGeometry relative="1" as="geometry">
            <mxPoint x="320" y="144.65999999999997" as="sourcePoint" />
            <mxPoint x="240" y="144.65999999999997" as="targetPoint" />
          </mxGeometry>
        </mxCell>
        <mxCell id="0o3JyBKIMg1bbvVS_Xob-25" value="АВТОРИЗАЦИЯ" style="text;html=1;align=center;verticalAlign=middle;resizable=0;points=[];autosize=1;strokeColor=none;fillColor=none;fontStyle=1;fontSize=20;" parent="1" vertex="1">
          <mxGeometry x="35" width="170" height="40" as="geometry" />
        </mxCell>
        <mxCell id="0o3JyBKIMg1bbvVS_Xob-30" value="WebSocket-соединение" style="shape=umlFrame;whiteSpace=wrap;html=1;pointerEvents=0;dashed=1;width=160;height=20;" parent="1" vertex="1">
          <mxGeometry x="-95" y="1490" width="515" height="290" as="geometry" />
        </mxCell>
        <mxCell id="0o3JyBKIMg1bbvVS_Xob-40" value="Игровой процесс" style="text;html=1;align=center;verticalAlign=middle;resizable=0;points=[];autosize=1;strokeColor=none;fillColor=none;fontStyle=1;fontSize=20;" parent="1" vertex="1">
          <mxGeometry x="40" y="1190" width="180" height="40" as="geometry" />
        </mxCell>
        <mxCell id="0o3JyBKIMg1bbvVS_Xob-44" value="" style="edgeStyle=orthogonalEdgeStyle;rounded=0;orthogonalLoop=1;jettySize=auto;html=1;" parent="1" source="0o3JyBKIMg1bbvVS_Xob-41" target="0o3JyBKIMg1bbvVS_Xob-42" edge="1">
          <mxGeometry relative="1" as="geometry" />
        </mxCell>
        <mxCell id="0o3JyBKIMg1bbvVS_Xob-41" value="Формирование комнаты (FORMING)" style="html=1;whiteSpace=wrap;" parent="1" vertex="1">
          <mxGeometry x="-820" y="1370" width="240" height="40" as="geometry" />
        </mxCell>
        <mxCell id="0o3JyBKIMg1bbvVS_Xob-45" value="" style="edgeStyle=orthogonalEdgeStyle;rounded=0;orthogonalLoop=1;jettySize=auto;html=1;" parent="1" source="0o3JyBKIMg1bbvVS_Xob-42" target="0o3JyBKIMg1bbvVS_Xob-43" edge="1">
          <mxGeometry relative="1" as="geometry" />
        </mxCell>
        <mxCell id="0o3JyBKIMg1bbvVS_Xob-42" value="Игровой процесс (GAMING)" style="html=1;whiteSpace=wrap;" parent="1" vertex="1">
          <mxGeometry x="-540" y="1370" width="160" height="40" as="geometry" />
        </mxCell>
        <mxCell id="0o3JyBKIMg1bbvVS_Xob-43" value="Расформирование комнаты (DISSOLUTION)" style="html=1;whiteSpace=wrap;" parent="1" vertex="1">
          <mxGeometry x="-340" y="1370" width="200" height="40" as="geometry" />
        </mxCell>
        <mxCell id="0o3JyBKIMg1bbvVS_Xob-51" value="" style="edgeStyle=orthogonalEdgeStyle;rounded=0;orthogonalLoop=1;jettySize=auto;html=1;endArrow=none;endFill=0;" parent="1" source="0o3JyBKIMg1bbvVS_Xob-49" target="0o3JyBKIMg1bbvVS_Xob-41" edge="1">
          <mxGeometry relative="1" as="geometry" />
        </mxCell>
        <mxCell id="0o3JyBKIMg1bbvVS_Xob-49" value="Ожидание присоединения игроков. Переход в игровой процесс произойдет, когда к комнате присоединится 5 игроков, либо больше половины участников комнаты проголосуют за начало игры (при этом в комнате должено находиться минимум 2 игрока)" style="shape=note;size=0;whiteSpace=wrap;html=1;" parent="1" vertex="1">
          <mxGeometry x="-820" y="1210" width="240" height="120" as="geometry" />
        </mxCell>
        <mxCell id="0o3JyBKIMg1bbvVS_Xob-52" value="Ход игры по правилам Покера" style="shape=note;size=0;whiteSpace=wrap;html=1;" parent="1" vertex="1">
          <mxGeometry x="-540" y="1210" width="160" height="120" as="geometry" />
        </mxCell>
        <mxCell id="0o3JyBKIMg1bbvVS_Xob-53" value="Закрытие игровой комнаты после того, как ее покинул последний игрок." style="shape=note;size=0;whiteSpace=wrap;html=1;" parent="1" vertex="1">
          <mxGeometry x="-340" y="1210" width="200" height="120" as="geometry" />
        </mxCell>
        <mxCell id="0o3JyBKIMg1bbvVS_Xob-54" value="Жизненный цикл игровой комнаты" style="text;html=1;align=center;verticalAlign=middle;resizable=0;points=[];autosize=1;strokeColor=none;fillColor=none;fontStyle=1;fontSize=20;" parent="1" vertex="1">
          <mxGeometry x="-820" y="1150" width="340" height="40" as="geometry" />
        </mxCell>
        <mxCell id="4tpQ6kFbfYlA22I4UQDo-18" value="Player" style="shape=umlLifeline;perimeter=lifelinePerimeter;whiteSpace=wrap;html=1;container=1;dropTarget=0;collapsible=0;recursiveResize=0;outlineConnect=0;portConstraint=eastwest;newEdgeStyle={&quot;curved&quot;:0,&quot;rounded&quot;:0};" parent="1" vertex="1">
          <mxGeometry x="70" y="410" width="100" height="200" as="geometry" />
        </mxCell>
        <mxCell id="4tpQ6kFbfYlA22I4UQDo-19" value="Game-Server" style="shape=umlLifeline;perimeter=lifelinePerimeter;whiteSpace=wrap;html=1;container=1;dropTarget=0;collapsible=0;recursiveResize=0;outlineConnect=0;portConstraint=eastwest;newEdgeStyle={&quot;curved&quot;:0,&quot;rounded&quot;:0};" parent="1" vertex="1">
          <mxGeometry x="310" y="410" width="100" height="200" as="geometry" />
        </mxCell>
        <mxCell id="4tpQ6kFbfYlA22I4UQDo-23" value="" style="html=1;points=[[0,0,0,0,5],[0,1,0,0,-5],[1,0,0,0,5],[1,1,0,0,-5]];perimeter=orthogonalPerimeter;outlineConnect=0;targetShapes=umlLifeline;portConstraint=eastwest;newEdgeStyle={&quot;curved&quot;:0,&quot;rounded&quot;:0};" parent="4tpQ6kFbfYlA22I4UQDo-19" vertex="1">
          <mxGeometry x="-195" y="80" width="10" height="90" as="geometry" />
        </mxCell>
        <mxCell id="4tpQ6kFbfYlA22I4UQDo-29" value="" style="html=1;points=[[0,0,0,0,5],[0,1,0,0,-5],[1,0,0,0,5],[1,1,0,0,-5]];perimeter=orthogonalPerimeter;outlineConnect=0;targetShapes=umlLifeline;portConstraint=eastwest;newEdgeStyle={&quot;curved&quot;:0,&quot;rounded&quot;:0};" parent="4tpQ6kFbfYlA22I4UQDo-19" vertex="1">
          <mxGeometry x="45" y="80" width="10" height="90" as="geometry" />
        </mxCell>
        <mxCell id="4tpQ6kFbfYlA22I4UQDo-27" value="запрос информации об игроке &lt;br&gt;(+ access-token)" style="html=1;verticalAlign=bottom;endArrow=block;curved=0;rounded=0;" parent="4tpQ6kFbfYlA22I4UQDo-19" edge="1">
          <mxGeometry y="-20" width="80" relative="1" as="geometry">
            <mxPoint x="-185" y="90" as="sourcePoint" />
            <mxPoint x="45" y="90" as="targetPoint" />
            <mxPoint as="offset" />
          </mxGeometry>
        </mxCell>
        <mxCell id="4tpQ6kFbfYlA22I4UQDo-28" value="UserInfo" style="html=1;verticalAlign=bottom;endArrow=open;dashed=1;endSize=8;curved=0;rounded=0;entryX=1;entryY=1;entryDx=0;entryDy=-5;entryPerimeter=0;" parent="4tpQ6kFbfYlA22I4UQDo-19" edge="1">
          <mxGeometry relative="1" as="geometry">
            <mxPoint x="45" y="160" as="sourcePoint" />
            <mxPoint x="-185" y="160" as="targetPoint" />
          </mxGeometry>
        </mxCell>
        <mxCell id="4tpQ6kFbfYlA22I4UQDo-30" value="валидация access-token" style="html=1;align=left;spacingLeft=2;endArrow=block;rounded=0;edgeStyle=orthogonalEdgeStyle;curved=0;rounded=0;" parent="4tpQ6kFbfYlA22I4UQDo-19" edge="1">
          <mxGeometry relative="1" as="geometry">
            <mxPoint x="55" y="100" as="sourcePoint" />
            <Array as="points">
              <mxPoint x="100" y="100" />
              <mxPoint x="100" y="120" />
            </Array>
            <mxPoint x="55" y="120" as="targetPoint" />
          </mxGeometry>
        </mxCell>
        <mxCell id="4tpQ6kFbfYlA22I4UQDo-31" value="извлечение информации об игроке из БД" style="html=1;align=left;spacingLeft=2;endArrow=block;rounded=0;edgeStyle=orthogonalEdgeStyle;curved=0;rounded=0;" parent="4tpQ6kFbfYlA22I4UQDo-19" edge="1">
          <mxGeometry relative="1" as="geometry">
            <mxPoint x="55" y="140" as="sourcePoint" />
            <Array as="points">
              <mxPoint x="100" y="140" />
              <mxPoint x="100" y="160" />
            </Array>
            <mxPoint x="55" y="160" as="targetPoint" />
          </mxGeometry>
        </mxCell>
        <mxCell id="4tpQ6kFbfYlA22I4UQDo-32" value="&lt;span style=&quot;color: rgb(0, 0, 0); font-family: Helvetica; font-size: 20px; font-style: normal; font-variant-ligatures: normal; font-variant-caps: normal; font-weight: 700; letter-spacing: normal; orphans: 2; text-align: center; text-indent: 0px; text-transform: none; widows: 2; word-spacing: 0px; -webkit-text-stroke-width: 0px; white-space: nowrap; background-color: rgb(251, 251, 251); text-decoration-thickness: initial; text-decoration-style: initial; text-decoration-color: initial; float: none; display: inline !important;&quot;&gt;ПОЛУЧЕНИЕ ИНФОРМАЦИИ ОБ ИГРОКЕ&lt;/span&gt;" style="text;whiteSpace=wrap;html=1;" parent="1" vertex="1">
          <mxGeometry x="40" y="360" width="190" height="50" as="geometry" />
        </mxCell>
        <mxCell id="4tpQ6kFbfYlA22I4UQDo-45" value="Client" style="shape=umlLifeline;perimeter=lifelinePerimeter;whiteSpace=wrap;html=1;container=1;dropTarget=0;collapsible=0;recursiveResize=0;outlineConnect=0;portConstraint=eastwest;newEdgeStyle={&quot;curved&quot;:0,&quot;rounded&quot;:0};" parent="1" vertex="1">
          <mxGeometry x="75" y="-240" width="100" height="200" as="geometry" />
        </mxCell>
        <mxCell id="4tpQ6kFbfYlA22I4UQDo-46" value="Auth-Server" style="shape=umlLifeline;perimeter=lifelinePerimeter;whiteSpace=wrap;html=1;container=1;dropTarget=0;collapsible=0;recursiveResize=0;outlineConnect=0;portConstraint=eastwest;newEdgeStyle={&quot;curved&quot;:0,&quot;rounded&quot;:0};" parent="1" vertex="1">
          <mxGeometry x="595" y="-240" width="100" height="200" as="geometry" />
        </mxCell>
        <mxCell id="4tpQ6kFbfYlA22I4UQDo-47" value="Game-Server" style="shape=umlLifeline;perimeter=lifelinePerimeter;whiteSpace=wrap;html=1;container=1;dropTarget=0;collapsible=0;recursiveResize=0;outlineConnect=0;portConstraint=eastwest;newEdgeStyle={&quot;curved&quot;:0,&quot;rounded&quot;:0};" parent="1" vertex="1">
          <mxGeometry x="315" y="-240" width="100" height="200" as="geometry" />
        </mxCell>
        <mxCell id="4tpQ6kFbfYlA22I4UQDo-48" value="" style="html=1;points=[[0,0,0,0,5],[0,1,0,0,-5],[1,0,0,0,5],[1,1,0,0,-5]];perimeter=orthogonalPerimeter;outlineConnect=0;targetShapes=umlLifeline;portConstraint=eastwest;newEdgeStyle={&quot;curved&quot;:0,&quot;rounded&quot;:0};" parent="4tpQ6kFbfYlA22I4UQDo-47" vertex="1">
          <mxGeometry x="-195" y="70" width="10" height="90" as="geometry" />
        </mxCell>
        <mxCell id="4tpQ6kFbfYlA22I4UQDo-49" value="" style="html=1;points=[[0,0,0,0,5],[0,1,0,0,-5],[1,0,0,0,5],[1,1,0,0,-5]];perimeter=orthogonalPerimeter;outlineConnect=0;targetShapes=umlLifeline;portConstraint=eastwest;newEdgeStyle={&quot;curved&quot;:0,&quot;rounded&quot;:0};" parent="4tpQ6kFbfYlA22I4UQDo-47" vertex="1">
          <mxGeometry x="45" y="70" width="10" height="90" as="geometry" />
        </mxCell>
        <mxCell id="4tpQ6kFbfYlA22I4UQDo-50" value="HTTP. Post/Regester: RegistrationRequest" style="html=1;verticalAlign=bottom;endArrow=block;curved=0;rounded=0;" parent="4tpQ6kFbfYlA22I4UQDo-47" target="4tpQ6kFbfYlA22I4UQDo-49" edge="1">
          <mxGeometry width="80" relative="1" as="geometry">
            <mxPoint x="-185" y="80" as="sourcePoint" />
            <mxPoint x="-105" y="80" as="targetPoint" />
          </mxGeometry>
        </mxCell>
        <mxCell id="4tpQ6kFbfYlA22I4UQDo-51" value="AuthenticationResponse" style="html=1;verticalAlign=bottom;endArrow=open;dashed=1;endSize=8;curved=0;rounded=0;entryX=1;entryY=1;entryDx=0;entryDy=-5;entryPerimeter=0;" parent="4tpQ6kFbfYlA22I4UQDo-47" edge="1">
          <mxGeometry relative="1" as="geometry">
            <mxPoint x="45" y="150" as="sourcePoint" />
            <mxPoint x="-185" y="150" as="targetPoint" />
          </mxGeometry>
        </mxCell>
        <mxCell id="4tpQ6kFbfYlA22I4UQDo-52" value="" style="html=1;points=[[0,0,0,0,5],[0,1,0,0,-5],[1,0,0,0,5],[1,1,0,0,-5]];perimeter=orthogonalPerimeter;outlineConnect=0;targetShapes=umlLifeline;portConstraint=eastwest;newEdgeStyle={&quot;curved&quot;:0,&quot;rounded&quot;:0};" parent="4tpQ6kFbfYlA22I4UQDo-47" vertex="1">
          <mxGeometry x="325" y="70" width="10" height="80" as="geometry" />
        </mxCell>
        <mxCell id="4tpQ6kFbfYlA22I4UQDo-53" value="RegistrationRequest" style="html=1;verticalAlign=bottom;endArrow=block;curved=0;rounded=0;" parent="4tpQ6kFbfYlA22I4UQDo-47" target="4tpQ6kFbfYlA22I4UQDo-52" edge="1">
          <mxGeometry width="80" relative="1" as="geometry">
            <mxPoint x="55" y="90" as="sourcePoint" />
            <mxPoint x="310" y="90" as="targetPoint" />
          </mxGeometry>
        </mxCell>
        <mxCell id="4tpQ6kFbfYlA22I4UQDo-54" value="Создание учетной &lt;br&gt;записи игрока" style="html=1;align=left;spacingLeft=2;endArrow=block;rounded=0;edgeStyle=orthogonalEdgeStyle;curved=0;rounded=0;" parent="4tpQ6kFbfYlA22I4UQDo-47" target="4tpQ6kFbfYlA22I4UQDo-52" edge="1">
          <mxGeometry x="0.0047" relative="1" as="geometry">
            <mxPoint x="335" y="90" as="sourcePoint" />
            <Array as="points">
              <mxPoint x="370" y="90" />
              <mxPoint x="370" y="110" />
            </Array>
            <mxPoint x="370" y="120" as="targetPoint" />
            <mxPoint as="offset" />
          </mxGeometry>
        </mxCell>
        <mxCell id="4tpQ6kFbfYlA22I4UQDo-55" value="AuthenticationResponse" style="html=1;verticalAlign=bottom;endArrow=open;dashed=1;endSize=8;curved=0;rounded=0;exitX=0;exitY=1;exitDx=0;exitDy=-5;exitPerimeter=0;" parent="4tpQ6kFbfYlA22I4UQDo-47" source="4tpQ6kFbfYlA22I4UQDo-52" target="4tpQ6kFbfYlA22I4UQDo-49" edge="1">
          <mxGeometry relative="1" as="geometry">
            <mxPoint x="320" y="144.65999999999997" as="sourcePoint" />
            <mxPoint x="240" y="144.65999999999997" as="targetPoint" />
          </mxGeometry>
        </mxCell>
        <mxCell id="4tpQ6kFbfYlA22I4UQDo-56" value="РЕГИСТРАЦИЯ" style="text;html=1;align=center;verticalAlign=middle;resizable=0;points=[];autosize=1;strokeColor=none;fillColor=none;fontStyle=1;fontSize=20;" parent="1" vertex="1">
          <mxGeometry x="40" y="-320" width="170" height="40" as="geometry" />
        </mxCell>
        <mxCell id="4tpQ6kFbfYlA22I4UQDo-61" value="Player" style="shape=umlLifeline;perimeter=lifelinePerimeter;whiteSpace=wrap;html=1;container=1;dropTarget=0;collapsible=0;recursiveResize=0;outlineConnect=0;portConstraint=eastwest;newEdgeStyle={&quot;curved&quot;:0,&quot;rounded&quot;:0};" parent="1" vertex="1">
          <mxGeometry x="65" y="690" width="100" height="200" as="geometry" />
        </mxCell>
        <mxCell id="4tpQ6kFbfYlA22I4UQDo-62" value="Game-Server" style="shape=umlLifeline;perimeter=lifelinePerimeter;whiteSpace=wrap;html=1;container=1;dropTarget=0;collapsible=0;recursiveResize=0;outlineConnect=0;portConstraint=eastwest;newEdgeStyle={&quot;curved&quot;:0,&quot;rounded&quot;:0};" parent="1" vertex="1">
          <mxGeometry x="305" y="690" width="100" height="200" as="geometry" />
        </mxCell>
        <mxCell id="4tpQ6kFbfYlA22I4UQDo-63" value="" style="html=1;points=[[0,0,0,0,5],[0,1,0,0,-5],[1,0,0,0,5],[1,1,0,0,-5]];perimeter=orthogonalPerimeter;outlineConnect=0;targetShapes=umlLifeline;portConstraint=eastwest;newEdgeStyle={&quot;curved&quot;:0,&quot;rounded&quot;:0};" parent="4tpQ6kFbfYlA22I4UQDo-62" vertex="1">
          <mxGeometry x="-195" y="80" width="10" height="90" as="geometry" />
        </mxCell>
        <mxCell id="4tpQ6kFbfYlA22I4UQDo-64" value="" style="html=1;points=[[0,0,0,0,5],[0,1,0,0,-5],[1,0,0,0,5],[1,1,0,0,-5]];perimeter=orthogonalPerimeter;outlineConnect=0;targetShapes=umlLifeline;portConstraint=eastwest;newEdgeStyle={&quot;curved&quot;:0,&quot;rounded&quot;:0};" parent="4tpQ6kFbfYlA22I4UQDo-62" vertex="1">
          <mxGeometry x="45" y="80" width="10" height="90" as="geometry" />
        </mxCell>
        <mxCell id="4tpQ6kFbfYlA22I4UQDo-65" value="запрос на поиск игровой комнаты&lt;br&gt;(+ access-token)" style="html=1;verticalAlign=bottom;endArrow=block;curved=0;rounded=0;" parent="4tpQ6kFbfYlA22I4UQDo-62" edge="1">
          <mxGeometry y="-20" width="80" relative="1" as="geometry">
            <mxPoint x="-185" y="90" as="sourcePoint" />
            <mxPoint x="45" y="90" as="targetPoint" />
            <mxPoint as="offset" />
          </mxGeometry>
        </mxCell>
        <mxCell id="4tpQ6kFbfYlA22I4UQDo-66" value="RoomInfo" style="html=1;verticalAlign=bottom;endArrow=open;dashed=1;endSize=8;curved=0;rounded=0;entryX=1;entryY=1;entryDx=0;entryDy=-5;entryPerimeter=0;" parent="4tpQ6kFbfYlA22I4UQDo-62" edge="1">
          <mxGeometry relative="1" as="geometry">
            <mxPoint x="45" y="160" as="sourcePoint" />
            <mxPoint x="-185" y="160" as="targetPoint" />
          </mxGeometry>
        </mxCell>
        <mxCell id="4tpQ6kFbfYlA22I4UQDo-67" value="валидация access-token" style="html=1;align=left;spacingLeft=2;endArrow=block;rounded=0;edgeStyle=orthogonalEdgeStyle;curved=0;rounded=0;" parent="4tpQ6kFbfYlA22I4UQDo-62" edge="1">
          <mxGeometry relative="1" as="geometry">
            <mxPoint x="55" y="100" as="sourcePoint" />
            <Array as="points">
              <mxPoint x="100" y="100" />
              <mxPoint x="100" y="120" />
            </Array>
            <mxPoint x="55" y="120" as="targetPoint" />
          </mxGeometry>
        </mxCell>
        <mxCell id="4tpQ6kFbfYlA22I4UQDo-68" value="поиск комнаты на этапе формирования&amp;nbsp;&lt;div&gt;(или создание новой комнаты)&lt;/div&gt;" style="html=1;align=left;spacingLeft=2;endArrow=block;rounded=0;edgeStyle=orthogonalEdgeStyle;curved=0;rounded=0;" parent="4tpQ6kFbfYlA22I4UQDo-62" edge="1">
          <mxGeometry relative="1" as="geometry">
            <mxPoint x="55" y="140" as="sourcePoint" />
            <Array as="points">
              <mxPoint x="100" y="140" />
              <mxPoint x="100" y="160" />
            </Array>
            <mxPoint x="55" y="160" as="targetPoint" />
          </mxGeometry>
        </mxCell>
        <mxCell id="4tpQ6kFbfYlA22I4UQDo-69" value="&lt;div style=&quot;text-align: center;&quot;&gt;&lt;span style=&quot;background-color: transparent; color: light-dark(rgb(0, 0, 0), rgb(255, 255, 255)); font-size: 20px; text-wrap: nowrap;&quot;&gt;&lt;b&gt;ПОИСК ИГРОВОЙ КОМНАТЫ&lt;/b&gt;&lt;/span&gt;&lt;/div&gt;" style="text;whiteSpace=wrap;html=1;" parent="1" vertex="1">
          <mxGeometry x="35" y="640" width="190" height="50" as="geometry" />
        </mxCell>
        <mxCell id="4tpQ6kFbfYlA22I4UQDo-71" value="Player" style="shape=umlLifeline;perimeter=lifelinePerimeter;whiteSpace=wrap;html=1;container=1;dropTarget=0;collapsible=0;recursiveResize=0;outlineConnect=0;portConstraint=eastwest;newEdgeStyle={&quot;curved&quot;:0,&quot;rounded&quot;:0};" parent="1" vertex="1">
          <mxGeometry x="65" y="970" width="100" height="200" as="geometry" />
        </mxCell>
        <mxCell id="4tpQ6kFbfYlA22I4UQDo-72" value="Game-Server" style="shape=umlLifeline;perimeter=lifelinePerimeter;whiteSpace=wrap;html=1;container=1;dropTarget=0;collapsible=0;recursiveResize=0;outlineConnect=0;portConstraint=eastwest;newEdgeStyle={&quot;curved&quot;:0,&quot;rounded&quot;:0};" parent="1" vertex="1">
          <mxGeometry x="305" y="970" width="100" height="200" as="geometry" />
        </mxCell>
        <mxCell id="4tpQ6kFbfYlA22I4UQDo-73" value="" style="html=1;points=[[0,0,0,0,5],[0,1,0,0,-5],[1,0,0,0,5],[1,1,0,0,-5]];perimeter=orthogonalPerimeter;outlineConnect=0;targetShapes=umlLifeline;portConstraint=eastwest;newEdgeStyle={&quot;curved&quot;:0,&quot;rounded&quot;:0};" parent="4tpQ6kFbfYlA22I4UQDo-72" vertex="1">
          <mxGeometry x="-195" y="80" width="10" height="90" as="geometry" />
        </mxCell>
        <mxCell id="4tpQ6kFbfYlA22I4UQDo-74" value="" style="html=1;points=[[0,0,0,0,5],[0,1,0,0,-5],[1,0,0,0,5],[1,1,0,0,-5]];perimeter=orthogonalPerimeter;outlineConnect=0;targetShapes=umlLifeline;portConstraint=eastwest;newEdgeStyle={&quot;curved&quot;:0,&quot;rounded&quot;:0};" parent="4tpQ6kFbfYlA22I4UQDo-72" vertex="1">
          <mxGeometry x="45" y="80" width="10" height="90" as="geometry" />
        </mxCell>
        <mxCell id="4tpQ6kFbfYlA22I4UQDo-75" value="запрос состояния игровой комнаты&lt;br&gt;(+ access-token)" style="html=1;verticalAlign=bottom;endArrow=block;curved=0;rounded=0;" parent="4tpQ6kFbfYlA22I4UQDo-72" edge="1">
          <mxGeometry y="-20" width="80" relative="1" as="geometry">
            <mxPoint x="-185" y="90" as="sourcePoint" />
            <mxPoint x="45" y="90" as="targetPoint" />
            <mxPoint as="offset" />
          </mxGeometry>
        </mxCell>
        <mxCell id="4tpQ6kFbfYlA22I4UQDo-76" value="RoomInfo" style="html=1;verticalAlign=bottom;endArrow=open;dashed=1;endSize=8;curved=0;rounded=0;entryX=1;entryY=1;entryDx=0;entryDy=-5;entryPerimeter=0;" parent="4tpQ6kFbfYlA22I4UQDo-72" edge="1">
          <mxGeometry relative="1" as="geometry">
            <mxPoint x="45" y="160" as="sourcePoint" />
            <mxPoint x="-185" y="160" as="targetPoint" />
          </mxGeometry>
        </mxCell>
        <mxCell id="4tpQ6kFbfYlA22I4UQDo-77" value="валидация access-token" style="html=1;align=left;spacingLeft=2;endArrow=block;rounded=0;edgeStyle=orthogonalEdgeStyle;curved=0;rounded=0;" parent="4tpQ6kFbfYlA22I4UQDo-72" edge="1">
          <mxGeometry relative="1" as="geometry">
            <mxPoint x="55" y="100" as="sourcePoint" />
            <Array as="points">
              <mxPoint x="100" y="100" />
              <mxPoint x="100" y="120" />
            </Array>
            <mxPoint x="55" y="120" as="targetPoint" />
          </mxGeometry>
        </mxCell>
        <mxCell id="4tpQ6kFbfYlA22I4UQDo-78" value="выгрузка состояния игровой комнаты" style="html=1;align=left;spacingLeft=2;endArrow=block;rounded=0;edgeStyle=orthogonalEdgeStyle;curved=0;rounded=0;" parent="4tpQ6kFbfYlA22I4UQDo-72" edge="1">
          <mxGeometry relative="1" as="geometry">
            <mxPoint x="55" y="140" as="sourcePoint" />
            <Array as="points">
              <mxPoint x="100" y="140" />
              <mxPoint x="100" y="160" />
            </Array>
            <mxPoint x="55" y="160" as="targetPoint" />
          </mxGeometry>
        </mxCell>
        <mxCell id="4tpQ6kFbfYlA22I4UQDo-79" value="&lt;div style=&quot;text-align: center;&quot;&gt;&lt;span style=&quot;background-color: transparent; color: light-dark(rgb(0, 0, 0), rgb(255, 255, 255)); font-size: 20px; text-wrap: nowrap;&quot;&gt;&lt;b&gt;ПОЛУЧЕНИЕ СОСТОЯНИЯ ИГРОВОЙ КОМНАТЫ&lt;/b&gt;&lt;/span&gt;&lt;/div&gt;" style="text;whiteSpace=wrap;html=1;" parent="1" vertex="1">
          <mxGeometry x="35" y="920" width="190" height="50" as="geometry" />
        </mxCell>
        <mxCell id="4tpQ6kFbfYlA22I4UQDo-80" value="Возможные события в игре:&lt;div&gt;1) игрок &amp;lt;PlayerUid&amp;gt; присоединился к комнате&lt;/div&gt;&lt;div&gt;1.2) Количество игроков в комнате N, количество игроков, проголосовавших за &quot;начало&quot; M&lt;/div&gt;&lt;div&gt;[описать события голосования перед началом игры]&lt;/div&gt;&lt;div&gt;&lt;br&gt;2) назначение дилера + выставление малого/большого блайндов игроками слева/справа от дилера (&amp;lt;PlayerUids игроков&amp;gt;) + номер раунда&lt;/div&gt;&lt;div&gt;3) выдача карт &quot;в закрытую&quot; Т.игроку. + информация по наибольшей комбинации для Т.игрока&lt;br&gt;4) переход очередности хода игроку &amp;lt;playerUid&amp;gt;. Для Т.игрока возможны варианты действий: &quot;фолд&quot;/&quot;чек&quot;/&quot;рейз&quot; или &quot;фолд&quot;/&quot;колл &amp;lt;сумма&amp;gt;&quot;/&quot;рейз&quot; -&amp;gt; продумать возможные варики&lt;/div&gt;&lt;div&gt;4.1) если ход перешел Т.игроку, то он выбирает ход из возможных. Если делается колл или рейз, то ставка вычитается из его депозита&lt;/div&gt;&lt;div&gt;5) принятие ставок и добавление их в банк&lt;br&gt;6) выкладывание на стол очередной карты + информация по наибольшей комбинации для Т.игрока&lt;br&gt;7) раскрытие карт всех игроков в конце раунда + выявление лучшей комбинации&lt;/div&gt;&lt;div&gt;8) удаление игроков с нулевыми депозитами. Если Т.игрок среди них, то показать его ему результаты&lt;/div&gt;&lt;div&gt;9) если Т.игрок остался один за столом, то показать ему его результаты&lt;br&gt;10) Игрок &amp;lt;playerUid&amp;gt; покидает игровую комнату&lt;/div&gt;" style="text;html=1;align=left;verticalAlign=middle;whiteSpace=wrap;rounded=0;" parent="1" vertex="1">
          <mxGeometry x="680" y="1290" width="760" height="270" as="geometry" />
        </mxCell>
        <mxCell id="0o3JyBKIMg1bbvVS_Xob-67" value="подключение к игровой комнате" style="html=1;align=left;spacingLeft=2;endArrow=block;rounded=0;edgeStyle=orthogonalEdgeStyle;curved=0;rounded=0;" parent="1" edge="1">
          <mxGeometry x="-0.0047" relative="1" as="geometry">
            <mxPoint x="390" y="1410" as="sourcePoint" />
            <Array as="points">
              <mxPoint x="435" y="1410" />
              <mxPoint x="435" y="1430" />
            </Array>
            <mxPoint x="390" y="1430" as="targetPoint" />
            <mxPoint as="offset" />
          </mxGeometry>
        </mxCell>
        <mxCell id="mNiH6PMDi3BtDX4whLDb-2" value="" style="endArrow=open;html=1;rounded=0;endFill=0;" edge="1" parent="1" source="0o3JyBKIMg1bbvVS_Xob-27">
          <mxGeometry width="50" height="50" relative="1" as="geometry">
            <mxPoint x="360" y="1540" as="sourcePoint" />
            <mxPoint x="120" y="1540" as="targetPoint" />
          </mxGeometry>
        </mxCell>
        <mxCell id="mNiH6PMDi3BtDX4whLDb-3" value="ResponseMessage" style="edgeLabel;html=1;align=center;verticalAlign=middle;resizable=0;points=[];" vertex="1" connectable="0" parent="mNiH6PMDi3BtDX4whLDb-2">
          <mxGeometry x="-0.0156" y="-2" relative="1" as="geometry">
            <mxPoint x="-5" y="-7" as="offset" />
          </mxGeometry>
        </mxCell>
        <mxCell id="mNiH6PMDi3BtDX4whLDb-21" value="Запрос на поиск игровой комнаты&lt;br&gt;(+ access-token)&amp;nbsp;" style="html=1;verticalAlign=bottom;endArrow=block;curved=0;rounded=0;" edge="1" parent="1">
          <mxGeometry x="-0.0196" width="80" relative="1" as="geometry">
            <mxPoint x="126" y="1300" as="sourcePoint" />
            <mxPoint x="381" y="1300" as="targetPoint" />
            <mxPoint as="offset" />
          </mxGeometry>
        </mxCell>
        <mxCell id="0o3JyBKIMg1bbvVS_Xob-33" value="HTTP Upgrade-запрос&lt;br&gt;Запрос на подключение к игровой комнате&amp;nbsp;" style="html=1;verticalAlign=bottom;endArrow=block;curved=0;rounded=0;" parent="1" edge="1">
          <mxGeometry x="-0.0196" width="80" relative="1" as="geometry">
            <mxPoint x="125" y="1409.17" as="sourcePoint" />
            <mxPoint x="380" y="1409.17" as="targetPoint" />
            <mxPoint as="offset" />
          </mxGeometry>
        </mxCell>
        <mxCell id="mNiH6PMDi3BtDX4whLDb-22" value="валидация access-token" style="html=1;align=left;spacingLeft=2;endArrow=block;rounded=0;edgeStyle=orthogonalEdgeStyle;curved=0;rounded=0;" edge="1" parent="1">
          <mxGeometry relative="1" as="geometry">
            <mxPoint x="390" y="1300" as="sourcePoint" />
            <Array as="points">
              <mxPoint x="435" y="1300" />
              <mxPoint x="435" y="1320" />
            </Array>
            <mxPoint x="390" y="1320" as="targetPoint" />
          </mxGeometry>
        </mxCell>
        <mxCell id="mNiH6PMDi3BtDX4whLDb-23" value="выгрузка состояния игровой комнаты" style="html=1;align=left;spacingLeft=2;endArrow=block;rounded=0;edgeStyle=orthogonalEdgeStyle;curved=0;rounded=0;" edge="1" parent="1">
          <mxGeometry relative="1" as="geometry">
            <mxPoint x="390" y="1330" as="sourcePoint" />
            <Array as="points">
              <mxPoint x="435" y="1330" />
              <mxPoint x="435" y="1350" />
            </Array>
            <mxPoint x="390" y="1350" as="targetPoint" />
          </mxGeometry>
        </mxCell>
        <mxCell id="0o3JyBKIMg1bbvVS_Xob-69" value="101 HTTP-Upgrade: WebSocket&amp;nbsp;" style="html=1;verticalAlign=bottom;endArrow=open;dashed=1;endSize=8;curved=0;rounded=0;" parent="1" edge="1">
          <mxGeometry relative="1" as="geometry">
            <mxPoint x="380" y="1440" as="sourcePoint" />
            <mxPoint x="125" y="1440" as="targetPoint" />
            <Array as="points">
              <mxPoint x="275" y="1440" />
            </Array>
          </mxGeometry>
        </mxCell>
        <mxCell id="mNiH6PMDi3BtDX4whLDb-24" value="RoomInfo" style="html=1;verticalAlign=bottom;endArrow=open;dashed=1;endSize=8;curved=0;rounded=0;" edge="1" parent="1">
          <mxGeometry relative="1" as="geometry">
            <mxPoint x="380" y="1357" as="sourcePoint" />
            <mxPoint x="125" y="1357" as="targetPoint" />
            <Array as="points">
              <mxPoint x="275" y="1357" />
            </Array>
          </mxGeometry>
        </mxCell>
        <mxCell id="mNiH6PMDi3BtDX4whLDb-25" value="Client" style="shape=umlLifeline;perimeter=lifelinePerimeter;whiteSpace=wrap;html=1;container=1;dropTarget=0;collapsible=0;recursiveResize=0;outlineConnect=0;portConstraint=eastwest;newEdgeStyle={&quot;curved&quot;:0,&quot;rounded&quot;:0};" vertex="1" parent="1">
          <mxGeometry x="70" y="1930" width="100" height="800" as="geometry" />
        </mxCell>
        <mxCell id="mNiH6PMDi3BtDX4whLDb-51" value="" style="html=1;points=[[0,0,0,0,5],[0,1,0,0,-5],[1,0,0,0,5],[1,1,0,0,-5]];perimeter=orthogonalPerimeter;outlineConnect=0;targetShapes=umlLifeline;portConstraint=eastwest;newEdgeStyle={&quot;curved&quot;:0,&quot;rounded&quot;:0};" vertex="1" parent="mNiH6PMDi3BtDX4whLDb-25">
          <mxGeometry x="45" y="340" width="10" height="50" as="geometry" />
        </mxCell>
        <mxCell id="mNiH6PMDi3BtDX4whLDb-56" value="" style="html=1;points=[[0,0,0,0,5],[0,1,0,0,-5],[1,0,0,0,5],[1,1,0,0,-5]];perimeter=orthogonalPerimeter;outlineConnect=0;targetShapes=umlLifeline;portConstraint=eastwest;newEdgeStyle={&quot;curved&quot;:0,&quot;rounded&quot;:0};" vertex="1" parent="mNiH6PMDi3BtDX4whLDb-25">
          <mxGeometry x="45" y="460" width="10" height="170" as="geometry" />
        </mxCell>
        <mxCell id="mNiH6PMDi3BtDX4whLDb-26" value="Game-Server" style="shape=umlLifeline;perimeter=lifelinePerimeter;whiteSpace=wrap;html=1;container=1;dropTarget=0;collapsible=0;recursiveResize=0;outlineConnect=0;portConstraint=eastwest;newEdgeStyle={&quot;curved&quot;:0,&quot;rounded&quot;:0};" vertex="1" parent="1">
          <mxGeometry x="335" y="1930" width="100" height="730" as="geometry" />
        </mxCell>
        <mxCell id="mNiH6PMDi3BtDX4whLDb-31" value="AuthMessage" style="html=1;verticalAlign=bottom;endArrow=open;curved=0;rounded=0;endFill=0;" edge="1" parent="mNiH6PMDi3BtDX4whLDb-26">
          <mxGeometry x="-0.0196" width="80" relative="1" as="geometry">
            <mxPoint x="-210" y="280" as="sourcePoint" />
            <mxPoint x="45" y="280" as="targetPoint" />
            <mxPoint as="offset" />
          </mxGeometry>
        </mxCell>
        <mxCell id="mNiH6PMDi3BtDX4whLDb-32" value="" style="html=1;points=[[0,0,0,0,5],[0,1,0,0,-5],[1,0,0,0,5],[1,1,0,0,-5]];perimeter=orthogonalPerimeter;outlineConnect=0;targetShapes=umlLifeline;portConstraint=eastwest;newEdgeStyle={&quot;curved&quot;:0,&quot;rounded&quot;:0};" vertex="1" parent="mNiH6PMDi3BtDX4whLDb-26">
          <mxGeometry x="45" y="270" width="10" height="50" as="geometry" />
        </mxCell>
        <mxCell id="mNiH6PMDi3BtDX4whLDb-33" value="" style="html=1;points=[[0,0,0,0,5],[0,1,0,0,-5],[1,0,0,0,5],[1,1,0,0,-5]];perimeter=orthogonalPerimeter;outlineConnect=0;targetShapes=umlLifeline;portConstraint=eastwest;newEdgeStyle={&quot;curved&quot;:0,&quot;rounded&quot;:0};" vertex="1" parent="mNiH6PMDi3BtDX4whLDb-26">
          <mxGeometry x="-220" y="270" width="10" height="50" as="geometry" />
        </mxCell>
        <mxCell id="mNiH6PMDi3BtDX4whLDb-35" value="" style="html=1;points=[[0,0,0,0,5],[0,1,0,0,-5],[1,0,0,0,5],[1,1,0,0,-5]];perimeter=orthogonalPerimeter;outlineConnect=0;targetShapes=umlLifeline;portConstraint=eastwest;newEdgeStyle={&quot;curved&quot;:0,&quot;rounded&quot;:0};" vertex="1" parent="mNiH6PMDi3BtDX4whLDb-26">
          <mxGeometry x="-220" y="60" width="10" height="190" as="geometry" />
        </mxCell>
        <mxCell id="mNiH6PMDi3BtDX4whLDb-36" value="" style="html=1;points=[[0,0,0,0,5],[0,1,0,0,-5],[1,0,0,0,5],[1,1,0,0,-5]];perimeter=orthogonalPerimeter;outlineConnect=0;targetShapes=umlLifeline;portConstraint=eastwest;newEdgeStyle={&quot;curved&quot;:0,&quot;rounded&quot;:0};" vertex="1" parent="mNiH6PMDi3BtDX4whLDb-26">
          <mxGeometry x="45" y="160" width="10" height="90" as="geometry" />
        </mxCell>
        <mxCell id="mNiH6PMDi3BtDX4whLDb-37" value="" style="endArrow=block;startArrow=block;endFill=1;startFill=1;html=1;rounded=0;" edge="1" parent="mNiH6PMDi3BtDX4whLDb-26">
          <mxGeometry width="160" relative="1" as="geometry">
            <mxPoint x="-210" y="230" as="sourcePoint" />
            <mxPoint x="45" y="230" as="targetPoint" />
          </mxGeometry>
        </mxCell>
        <mxCell id="mNiH6PMDi3BtDX4whLDb-38" value="WebSocket-соединение установлено" style="edgeLabel;html=1;align=center;verticalAlign=middle;resizable=0;points=[];" vertex="1" connectable="0" parent="mNiH6PMDi3BtDX4whLDb-37">
          <mxGeometry x="-0.19" y="1" relative="1" as="geometry">
            <mxPoint x="23" y="12" as="offset" />
          </mxGeometry>
        </mxCell>
        <mxCell id="mNiH6PMDi3BtDX4whLDb-39" value="" style="html=1;points=[[0,0,0,0,5],[0,1,0,0,-5],[1,0,0,0,5],[1,1,0,0,-5]];perimeter=orthogonalPerimeter;outlineConnect=0;targetShapes=umlLifeline;portConstraint=eastwest;newEdgeStyle={&quot;curved&quot;:0,&quot;rounded&quot;:0};" vertex="1" parent="mNiH6PMDi3BtDX4whLDb-26">
          <mxGeometry x="45" y="60" width="10" height="70" as="geometry" />
        </mxCell>
        <mxCell id="mNiH6PMDi3BtDX4whLDb-57" value="" style="html=1;points=[[0,0,0,0,5],[0,1,0,0,-5],[1,0,0,0,5],[1,1,0,0,-5]];perimeter=orthogonalPerimeter;outlineConnect=0;targetShapes=umlLifeline;portConstraint=eastwest;newEdgeStyle={&quot;curved&quot;:0,&quot;rounded&quot;:0};" vertex="1" parent="mNiH6PMDi3BtDX4whLDb-26">
          <mxGeometry x="45" y="460" width="10" height="170" as="geometry" />
        </mxCell>
        <mxCell id="mNiH6PMDi3BtDX4whLDb-40" value="внутри WebSocket-соединения" style="shape=umlFrame;whiteSpace=wrap;html=1;pointerEvents=0;dashed=1;width=200;" vertex="1" parent="1">
          <mxGeometry x="-95" y="2190" width="575" height="150" as="geometry" />
        </mxCell>
        <mxCell id="mNiH6PMDi3BtDX4whLDb-41" value="Потеря и восстановление соединения во время игрового процесса" style="text;html=1;align=center;verticalAlign=middle;resizable=0;points=[];autosize=1;strokeColor=none;fillColor=none;fontStyle=1;fontSize=20;" vertex="1" parent="1">
          <mxGeometry x="45" y="1880" width="650" height="40" as="geometry" />
        </mxCell>
        <mxCell id="mNiH6PMDi3BtDX4whLDb-42" value="подключение к игровой комнате" style="html=1;align=left;spacingLeft=2;endArrow=block;rounded=0;edgeStyle=orthogonalEdgeStyle;curved=0;rounded=0;" edge="1" parent="1">
          <mxGeometry x="-0.0047" relative="1" as="geometry">
            <mxPoint x="390" y="2110" as="sourcePoint" />
            <Array as="points">
              <mxPoint x="435" y="2110" />
              <mxPoint x="435" y="2130" />
            </Array>
            <mxPoint x="390" y="2130" as="targetPoint" />
            <mxPoint as="offset" />
          </mxGeometry>
        </mxCell>
        <mxCell id="mNiH6PMDi3BtDX4whLDb-43" value="" style="endArrow=open;html=1;rounded=0;exitX=0.1;exitY=0.817;exitDx=0;exitDy=0;exitPerimeter=0;endFill=0;" edge="1" parent="1">
          <mxGeometry width="50" height="50" relative="1" as="geometry">
            <mxPoint x="381" y="2240" as="sourcePoint" />
            <mxPoint x="125" y="2240" as="targetPoint" />
          </mxGeometry>
        </mxCell>
        <mxCell id="mNiH6PMDi3BtDX4whLDb-44" value="ResponseMessage" style="edgeLabel;html=1;align=center;verticalAlign=middle;resizable=0;points=[];" vertex="1" connectable="0" parent="mNiH6PMDi3BtDX4whLDb-43">
          <mxGeometry x="-0.0156" y="-2" relative="1" as="geometry">
            <mxPoint x="-5" y="-7" as="offset" />
          </mxGeometry>
        </mxCell>
        <mxCell id="mNiH6PMDi3BtDX4whLDb-45" value="Запрос на поиск игровой комнаты&lt;br&gt;(+ access-token)&amp;nbsp;" style="html=1;verticalAlign=bottom;endArrow=block;curved=0;rounded=0;" edge="1" parent="1">
          <mxGeometry x="-0.0196" width="80" relative="1" as="geometry">
            <mxPoint x="126" y="2000" as="sourcePoint" />
            <mxPoint x="381" y="2000" as="targetPoint" />
            <mxPoint as="offset" />
          </mxGeometry>
        </mxCell>
        <mxCell id="mNiH6PMDi3BtDX4whLDb-46" value="HTTP Upgrade-запрос&lt;br&gt;Запрос на подключение к игровой комнате&amp;nbsp;" style="html=1;verticalAlign=bottom;endArrow=block;curved=0;rounded=0;" edge="1" parent="1">
          <mxGeometry x="-0.0196" width="80" relative="1" as="geometry">
            <mxPoint x="125" y="2109.17" as="sourcePoint" />
            <mxPoint x="380" y="2109.17" as="targetPoint" />
            <mxPoint as="offset" />
          </mxGeometry>
        </mxCell>
        <mxCell id="mNiH6PMDi3BtDX4whLDb-47" value="валидация access-token" style="html=1;align=left;spacingLeft=2;endArrow=block;rounded=0;edgeStyle=orthogonalEdgeStyle;curved=0;rounded=0;" edge="1" parent="1">
          <mxGeometry relative="1" as="geometry">
            <mxPoint x="390" y="2000" as="sourcePoint" />
            <Array as="points">
              <mxPoint x="435" y="2000" />
              <mxPoint x="435" y="2020" />
            </Array>
            <mxPoint x="390" y="2020" as="targetPoint" />
          </mxGeometry>
        </mxCell>
        <mxCell id="mNiH6PMDi3BtDX4whLDb-48" value="выгрузка состояния игровой комнаты" style="html=1;align=left;spacingLeft=2;endArrow=block;rounded=0;edgeStyle=orthogonalEdgeStyle;curved=0;rounded=0;" edge="1" parent="1">
          <mxGeometry relative="1" as="geometry">
            <mxPoint x="390" y="2030" as="sourcePoint" />
            <Array as="points">
              <mxPoint x="435" y="2030" />
              <mxPoint x="435" y="2050" />
            </Array>
            <mxPoint x="390" y="2050" as="targetPoint" />
          </mxGeometry>
        </mxCell>
        <mxCell id="mNiH6PMDi3BtDX4whLDb-49" value="101 HTTP-Upgrade: WebSocket&amp;nbsp;" style="html=1;verticalAlign=bottom;endArrow=open;dashed=1;endSize=8;curved=0;rounded=0;" edge="1" parent="1">
          <mxGeometry relative="1" as="geometry">
            <mxPoint x="380" y="2140" as="sourcePoint" />
            <mxPoint x="125" y="2140" as="targetPoint" />
            <Array as="points">
              <mxPoint x="275" y="2140" />
            </Array>
          </mxGeometry>
        </mxCell>
        <mxCell id="mNiH6PMDi3BtDX4whLDb-50" value="RoomInfo" style="html=1;verticalAlign=bottom;endArrow=open;dashed=1;endSize=8;curved=0;rounded=0;" edge="1" parent="1">
          <mxGeometry relative="1" as="geometry">
            <mxPoint x="380" y="2057" as="sourcePoint" />
            <mxPoint x="125" y="2057" as="targetPoint" />
            <Array as="points">
              <mxPoint x="275" y="2057" />
            </Array>
          </mxGeometry>
        </mxCell>
        <mxCell id="mNiH6PMDi3BtDX4whLDb-52" value="ActionMessage" style="html=1;verticalAlign=bottom;endArrow=open;curved=0;rounded=0;endFill=0;" edge="1" parent="1" source="mNiH6PMDi3BtDX4whLDb-51" target="mNiH6PMDi3BtDX4whLDb-53">
          <mxGeometry x="-0.0196" width="80" relative="1" as="geometry">
            <mxPoint x="130" y="2280" as="sourcePoint" />
            <mxPoint x="260" y="2280" as="targetPoint" />
            <mxPoint as="offset" />
          </mxGeometry>
        </mxCell>
        <mxCell id="mNiH6PMDi3BtDX4whLDb-53" value="" style="shape=umlDestroy;whiteSpace=wrap;html=1;strokeWidth=3;targetShapes=umlLifeline;" vertex="1" parent="1">
          <mxGeometry x="245" y="2280" width="15" height="15" as="geometry" />
        </mxCell>
        <mxCell id="mNiH6PMDi3BtDX4whLDb-54" value="" style="endArrow=cross;dashed=1;html=1;rounded=0;endFill=0;startArrow=cross;startFill=0;" edge="1" parent="1">
          <mxGeometry width="50" height="50" relative="1" as="geometry">
            <mxPoint x="120.14571428571422" y="2360.0000000000005" as="sourcePoint" />
            <mxPoint x="384.86000000000024" y="2360.0000000000005" as="targetPoint" />
          </mxGeometry>
        </mxCell>
        <mxCell id="mNiH6PMDi3BtDX4whLDb-55" value="WebSocket-соединение потеряно" style="edgeLabel;html=1;align=center;verticalAlign=middle;resizable=0;points=[];" vertex="1" connectable="0" parent="mNiH6PMDi3BtDX4whLDb-54">
          <mxGeometry x="-0.2348" y="-1" relative="1" as="geometry">
            <mxPoint x="31" y="9" as="offset" />
          </mxGeometry>
        </mxCell>
        <mxCell id="mNiH6PMDi3BtDX4whLDb-59" value="подключение к игровой комнате" style="html=1;align=left;spacingLeft=2;endArrow=block;rounded=0;edgeStyle=orthogonalEdgeStyle;curved=0;rounded=0;" edge="1" parent="1">
          <mxGeometry x="-0.0047" relative="1" as="geometry">
            <mxPoint x="390" y="2490" as="sourcePoint" />
            <Array as="points">
              <mxPoint x="435" y="2490" />
              <mxPoint x="435" y="2510" />
            </Array>
            <mxPoint x="390" y="2510" as="targetPoint" />
            <mxPoint as="offset" />
          </mxGeometry>
        </mxCell>
        <mxCell id="mNiH6PMDi3BtDX4whLDb-60" value="HTTP Upgrade-запрос&lt;br&gt;Запрос на подключение к игровой комнате&amp;nbsp;" style="html=1;verticalAlign=bottom;endArrow=block;curved=0;rounded=0;" edge="1" parent="1">
          <mxGeometry x="-0.0196" width="80" relative="1" as="geometry">
            <mxPoint x="125" y="2490" as="sourcePoint" />
            <mxPoint x="380" y="2490" as="targetPoint" />
            <mxPoint as="offset" />
          </mxGeometry>
        </mxCell>
        <mxCell id="mNiH6PMDi3BtDX4whLDb-61" value="101 HTTP-Upgrade: WebSocket&amp;nbsp;" style="html=1;verticalAlign=bottom;endArrow=open;dashed=1;endSize=8;curved=0;rounded=0;" edge="1" parent="1">
          <mxGeometry relative="1" as="geometry">
            <mxPoint x="380" y="2520.83" as="sourcePoint" />
            <mxPoint x="125" y="2520.83" as="targetPoint" />
            <Array as="points">
              <mxPoint x="275" y="2520.83" />
            </Array>
          </mxGeometry>
        </mxCell>
        <mxCell id="mNiH6PMDi3BtDX4whLDb-62" value="" style="endArrow=block;startArrow=block;endFill=1;startFill=1;html=1;rounded=0;" edge="1" parent="1">
          <mxGeometry width="160" relative="1" as="geometry">
            <mxPoint x="125" y="2541.83" as="sourcePoint" />
            <mxPoint x="380" y="2541.83" as="targetPoint" />
          </mxGeometry>
        </mxCell>
        <mxCell id="mNiH6PMDi3BtDX4whLDb-63" value="WebSocket-соединение установлено" style="edgeLabel;html=1;align=center;verticalAlign=middle;resizable=0;points=[];" vertex="1" connectable="0" parent="mNiH6PMDi3BtDX4whLDb-62">
          <mxGeometry x="-0.19" y="1" relative="1" as="geometry">
            <mxPoint x="23" y="12" as="offset" />
          </mxGeometry>
        </mxCell>
        <mxCell id="mNiH6PMDi3BtDX4whLDb-64" value="внутри WebSocket-соединения" style="shape=umlFrame;whiteSpace=wrap;html=1;pointerEvents=0;dashed=1;width=200;" vertex="1" parent="1">
          <mxGeometry x="-95" y="2570" width="575" height="150" as="geometry" />
        </mxCell>
        <mxCell id="mNiH6PMDi3BtDX4whLDb-65" value="AuthMessage" style="html=1;verticalAlign=bottom;endArrow=open;curved=0;rounded=0;endFill=0;" edge="1" parent="1">
          <mxGeometry x="-0.0196" width="80" relative="1" as="geometry">
            <mxPoint x="125" y="2590" as="sourcePoint" />
            <mxPoint x="380" y="2590" as="targetPoint" />
            <mxPoint as="offset" />
          </mxGeometry>
        </mxCell>
        <mxCell id="mNiH6PMDi3BtDX4whLDb-66" value="" style="html=1;points=[[0,0,0,0,5],[0,1,0,0,-5],[1,0,0,0,5],[1,1,0,0,-5]];perimeter=orthogonalPerimeter;outlineConnect=0;targetShapes=umlLifeline;portConstraint=eastwest;newEdgeStyle={&quot;curved&quot;:0,&quot;rounded&quot;:0};" vertex="1" parent="1">
          <mxGeometry x="380" y="2580" width="10" height="50" as="geometry" />
        </mxCell>
        <mxCell id="mNiH6PMDi3BtDX4whLDb-67" value="" style="html=1;points=[[0,0,0,0,5],[0,1,0,0,-5],[1,0,0,0,5],[1,1,0,0,-5]];perimeter=orthogonalPerimeter;outlineConnect=0;targetShapes=umlLifeline;portConstraint=eastwest;newEdgeStyle={&quot;curved&quot;:0,&quot;rounded&quot;:0};" vertex="1" parent="1">
          <mxGeometry x="115" y="2580" width="10" height="50" as="geometry" />
        </mxCell>
        <mxCell id="mNiH6PMDi3BtDX4whLDb-68" value="" style="endArrow=open;html=1;rounded=0;exitX=0.1;exitY=0.817;exitDx=0;exitDy=0;exitPerimeter=0;endFill=0;" edge="1" parent="1">
          <mxGeometry width="50" height="50" relative="1" as="geometry">
            <mxPoint x="381" y="2620" as="sourcePoint" />
            <mxPoint x="125" y="2620" as="targetPoint" />
          </mxGeometry>
        </mxCell>
        <mxCell id="mNiH6PMDi3BtDX4whLDb-69" value="ResponseMessage" style="edgeLabel;html=1;align=center;verticalAlign=middle;resizable=0;points=[];" vertex="1" connectable="0" parent="mNiH6PMDi3BtDX4whLDb-68">
          <mxGeometry x="-0.0156" y="-2" relative="1" as="geometry">
            <mxPoint x="-5" y="-7" as="offset" />
          </mxGeometry>
        </mxCell>
        <mxCell id="mNiH6PMDi3BtDX4whLDb-70" value="ActionMessage" style="html=1;verticalAlign=bottom;endArrow=open;curved=0;rounded=0;endFill=0;" edge="1" parent="1">
          <mxGeometry x="-0.0196" width="80" relative="1" as="geometry">
            <mxPoint x="125" y="2670" as="sourcePoint" />
            <mxPoint x="380" y="2670" as="targetPoint" />
            <mxPoint as="offset" />
          </mxGeometry>
        </mxCell>
        <mxCell id="mNiH6PMDi3BtDX4whLDb-71" value="" style="html=1;points=[[0,0,0,0,5],[0,1,0,0,-5],[1,0,0,0,5],[1,1,0,0,-5]];perimeter=orthogonalPerimeter;outlineConnect=0;targetShapes=umlLifeline;portConstraint=eastwest;newEdgeStyle={&quot;curved&quot;:0,&quot;rounded&quot;:0};" vertex="1" parent="1">
          <mxGeometry x="380" y="2660" width="10" height="50" as="geometry" />
        </mxCell>
        <mxCell id="mNiH6PMDi3BtDX4whLDb-72" value="" style="html=1;points=[[0,0,0,0,5],[0,1,0,0,-5],[1,0,0,0,5],[1,1,0,0,-5]];perimeter=orthogonalPerimeter;outlineConnect=0;targetShapes=umlLifeline;portConstraint=eastwest;newEdgeStyle={&quot;curved&quot;:0,&quot;rounded&quot;:0};" vertex="1" parent="1">
          <mxGeometry x="115" y="2660" width="10" height="50" as="geometry" />
        </mxCell>
        <mxCell id="mNiH6PMDi3BtDX4whLDb-73" value="" style="endArrow=open;html=1;rounded=0;exitX=0.1;exitY=0.817;exitDx=0;exitDy=0;exitPerimeter=0;endFill=0;" edge="1" parent="1">
          <mxGeometry width="50" height="50" relative="1" as="geometry">
            <mxPoint x="381" y="2700" as="sourcePoint" />
            <mxPoint x="125" y="2700" as="targetPoint" />
          </mxGeometry>
        </mxCell>
        <mxCell id="mNiH6PMDi3BtDX4whLDb-74" value="ResponseMessage" style="edgeLabel;html=1;align=center;verticalAlign=middle;resizable=0;points=[];" vertex="1" connectable="0" parent="mNiH6PMDi3BtDX4whLDb-73">
          <mxGeometry x="-0.0156" y="-2" relative="1" as="geometry">
            <mxPoint x="-5" y="-7" as="offset" />
          </mxGeometry>
        </mxCell>
        <mxCell id="mNiH6PMDi3BtDX4whLDb-75" value="Запрос на получение информации&amp;nbsp; &lt;br&gt;об игровой комнате&lt;br&gt;(+ access-token)&amp;nbsp;" style="html=1;verticalAlign=bottom;endArrow=block;curved=0;rounded=0;labelBackgroundColor=none;" edge="1" parent="1">
          <mxGeometry x="-0.0196" y="-30" width="80" relative="1" as="geometry">
            <mxPoint x="125" y="2400" as="sourcePoint" />
            <mxPoint x="380" y="2400" as="targetPoint" />
            <mxPoint as="offset" />
          </mxGeometry>
        </mxCell>
        <mxCell id="mNiH6PMDi3BtDX4whLDb-76" value="валидация access-token" style="html=1;align=left;spacingLeft=2;endArrow=block;rounded=0;edgeStyle=orthogonalEdgeStyle;curved=0;rounded=0;" edge="1" parent="1">
          <mxGeometry relative="1" as="geometry">
            <mxPoint x="390" y="2400" as="sourcePoint" />
            <Array as="points">
              <mxPoint x="435" y="2400" />
              <mxPoint x="435" y="2420" />
            </Array>
            <mxPoint x="390" y="2420" as="targetPoint" />
          </mxGeometry>
        </mxCell>
        <mxCell id="mNiH6PMDi3BtDX4whLDb-77" value="выгрузка состояния игровой комнаты" style="html=1;align=left;spacingLeft=2;endArrow=block;rounded=0;edgeStyle=orthogonalEdgeStyle;curved=0;rounded=0;" edge="1" parent="1">
          <mxGeometry relative="1" as="geometry">
            <mxPoint x="390" y="2430" as="sourcePoint" />
            <Array as="points">
              <mxPoint x="435" y="2430" />
              <mxPoint x="435" y="2450" />
            </Array>
            <mxPoint x="390" y="2450" as="targetPoint" />
          </mxGeometry>
        </mxCell>
        <mxCell id="mNiH6PMDi3BtDX4whLDb-78" value="RoomInfo" style="html=1;verticalAlign=bottom;endArrow=open;dashed=1;endSize=8;curved=0;rounded=0;" edge="1" parent="1">
          <mxGeometry relative="1" as="geometry">
            <mxPoint x="380" y="2450" as="sourcePoint" />
            <mxPoint x="125" y="2450" as="targetPoint" />
            <Array as="points">
              <mxPoint x="275" y="2450" />
            </Array>
          </mxGeometry>
        </mxCell>
        <mxCell id="mNiH6PMDi3BtDX4whLDb-79" value="HTTP" style="shape=umlFrame;whiteSpace=wrap;html=1;pointerEvents=0;dashed=1;width=100;height=20;" vertex="1" parent="1">
          <mxGeometry x="-85" y="1620" width="795" height="80" as="geometry" />
        </mxCell>
        <mxCell id="mNiH6PMDi3BtDX4whLDb-80" value="" style="html=1;points=[[0,0,0,0,5],[0,1,0,0,-5],[1,0,0,0,5],[1,1,0,0,-5]];perimeter=orthogonalPerimeter;outlineConnect=0;targetShapes=umlLifeline;portConstraint=eastwest;newEdgeStyle={&quot;curved&quot;:0,&quot;rounded&quot;:0};" vertex="1" parent="1">
          <mxGeometry x="115" y="1640" width="10" height="90" as="geometry" />
        </mxCell>
        <mxCell id="mNiH6PMDi3BtDX4whLDb-81" value="" style="html=1;points=[[0,0,0,0,5],[0,1,0,0,-5],[1,0,0,0,5],[1,1,0,0,-5]];perimeter=orthogonalPerimeter;outlineConnect=0;targetShapes=umlLifeline;portConstraint=eastwest;newEdgeStyle={&quot;curved&quot;:0,&quot;rounded&quot;:0};" vertex="1" parent="1">
          <mxGeometry x="380" y="1640" width="10" height="55" as="geometry" />
        </mxCell>
        <mxCell id="mNiH6PMDi3BtDX4whLDb-82" value="AuthenticationRequest" style="html=1;verticalAlign=bottom;endArrow=block;curved=0;rounded=0;exitX=1;exitY=0;exitDx=0;exitDy=5;exitPerimeter=0;" edge="1" parent="1" target="mNiH6PMDi3BtDX4whLDb-81" source="mNiH6PMDi3BtDX4whLDb-80">
          <mxGeometry width="80" relative="1" as="geometry">
            <mxPoint x="125" y="1615" as="sourcePoint" />
            <mxPoint x="205" y="1615" as="targetPoint" />
          </mxGeometry>
        </mxCell>
        <mxCell id="mNiH6PMDi3BtDX4whLDb-83" value="AuthenticationResponse" style="html=1;verticalAlign=bottom;endArrow=open;dashed=1;endSize=8;curved=0;rounded=0;entryX=1;entryY=1;entryDx=0;entryDy=-5;entryPerimeter=0;" edge="1" parent="1" source="mNiH6PMDi3BtDX4whLDb-81">
          <mxGeometry relative="1" as="geometry">
            <mxPoint x="355" y="1685" as="sourcePoint" />
            <mxPoint x="125" y="1685" as="targetPoint" />
          </mxGeometry>
        </mxCell>
        <mxCell id="mNiH6PMDi3BtDX4whLDb-85" value="Auth-Server" style="shape=umlLifeline;perimeter=lifelinePerimeter;whiteSpace=wrap;html=1;container=1;dropTarget=0;collapsible=0;recursiveResize=0;outlineConnect=0;portConstraint=eastwest;newEdgeStyle={&quot;curved&quot;:0,&quot;rounded&quot;:0};" vertex="1" parent="1">
          <mxGeometry x="530" y="1550" width="100" height="200" as="geometry" />
        </mxCell>
        <mxCell id="mNiH6PMDi3BtDX4whLDb-86" value="" style="html=1;points=[[0,0,0,0,5],[0,1,0,0,-5],[1,0,0,0,5],[1,1,0,0,-5]];perimeter=orthogonalPerimeter;outlineConnect=0;targetShapes=umlLifeline;portConstraint=eastwest;newEdgeStyle={&quot;curved&quot;:0,&quot;rounded&quot;:0};" vertex="1" parent="1">
          <mxGeometry x="575" y="1640" width="10" height="50" as="geometry" />
        </mxCell>
        <mxCell id="mNiH6PMDi3BtDX4whLDb-87" value="валидация данных" style="html=1;align=left;spacingLeft=2;endArrow=block;rounded=0;edgeStyle=orthogonalEdgeStyle;curved=0;rounded=0;" edge="1" parent="1">
          <mxGeometry relative="1" as="geometry">
            <mxPoint x="585" y="1657.5" as="sourcePoint" />
            <Array as="points">
              <mxPoint x="620" y="1657.5" />
              <mxPoint x="620" y="1677.5" />
            </Array>
            <mxPoint x="585" y="1677.5" as="targetPoint" />
          </mxGeometry>
        </mxCell>
        <mxCell id="mNiH6PMDi3BtDX4whLDb-88" value="AuthenticationRequest" style="html=1;verticalAlign=bottom;endArrow=block;curved=0;rounded=0;" edge="1" parent="1">
          <mxGeometry width="80" relative="1" as="geometry">
            <mxPoint x="390" y="1645" as="sourcePoint" />
            <mxPoint x="575" y="1645" as="targetPoint" />
          </mxGeometry>
        </mxCell>
        <mxCell id="mNiH6PMDi3BtDX4whLDb-89" value="AuthenticationResponse" style="html=1;verticalAlign=bottom;endArrow=open;dashed=1;endSize=8;curved=0;rounded=0;" edge="1" parent="1">
          <mxGeometry relative="1" as="geometry">
            <mxPoint x="575" y="1685" as="sourcePoint" />
            <mxPoint x="390" y="1685" as="targetPoint" />
          </mxGeometry>
        </mxCell>
        <mxCell id="mNiH6PMDi3BtDX4whLDb-90" value="Игровое взаимодействие" style="shape=umlFrame;whiteSpace=wrap;html=1;pointerEvents=0;dashed=1;width=160;height=20;" vertex="1" parent="1">
          <mxGeometry x="-85" y="1560" width="485" height="50" as="geometry" />
        </mxCell>
        <mxCell id="mNiH6PMDi3BtDX4whLDb-7" value="" style="endArrow=open;html=1;rounded=0;endFill=0;entryX=0.502;entryY=0.925;entryDx=0;entryDy=0;entryPerimeter=0;" edge="1" parent="1" source="0o3JyBKIMg1bbvVS_Xob-27" target="0o3JyBKIMg1bbvVS_Xob-26">
          <mxGeometry width="50" height="50" relative="1" as="geometry">
            <mxPoint x="381" y="1757" as="sourcePoint" />
            <mxPoint x="125" y="1757" as="targetPoint" />
          </mxGeometry>
        </mxCell>
        <mxCell id="mNiH6PMDi3BtDX4whLDb-8" value="ResponseMessage" style="edgeLabel;html=1;align=center;verticalAlign=middle;resizable=0;points=[];" vertex="1" connectable="0" parent="mNiH6PMDi3BtDX4whLDb-7">
          <mxGeometry x="-0.0156" y="-2" relative="1" as="geometry">
            <mxPoint x="-5" y="-7" as="offset" />
          </mxGeometry>
        </mxCell>
        <mxCell id="mNiH6PMDi3BtDX4whLDb-6" value="AuthMessage" style="html=1;verticalAlign=bottom;endArrow=open;curved=0;rounded=0;endFill=0;exitX=1;exitY=0.889;exitDx=0;exitDy=0;exitPerimeter=0;" edge="1" parent="1" source="mNiH6PMDi3BtDX4whLDb-80" target="0o3JyBKIMg1bbvVS_Xob-27">
          <mxGeometry x="-0.0196" width="80" relative="1" as="geometry">
            <mxPoint x="125" y="1726" as="sourcePoint" />
            <mxPoint x="385" y="1730" as="targetPoint" />
            <mxPoint as="offset" />
          </mxGeometry>
        </mxCell>
        <mxCell id="mNiH6PMDi3BtDX4whLDb-94" value="цикл" style="shape=umlFrame;whiteSpace=wrap;html=1;pointerEvents=0;dashed=1;width=50;height=20;" vertex="1" parent="1">
          <mxGeometry x="-790" y="1680" width="560" height="200" as="geometry" />
        </mxCell>
        <mxCell id="mNiH6PMDi3BtDX4whLDb-96" value="Player" style="shape=umlLifeline;perimeter=lifelinePerimeter;whiteSpace=wrap;html=1;container=1;dropTarget=0;collapsible=0;recursiveResize=0;outlineConnect=0;portConstraint=eastwest;newEdgeStyle={&quot;curved&quot;:0,&quot;rounded&quot;:0};" vertex="1" parent="1">
          <mxGeometry x="-730" y="1600" width="100" height="300" as="geometry" />
        </mxCell>
        <mxCell id="mNiH6PMDi3BtDX4whLDb-95" value="&lt;b&gt;[пока количество игроков с ненулевым депозитом &amp;gt; 1]&lt;/b&gt;" style="text;html=1;align=center;verticalAlign=middle;resizable=0;points=[];autosize=1;strokeColor=none;fillColor=none;" vertex="1" parent="1">
          <mxGeometry x="-750" y="1680" width="350" height="30" as="geometry" />
        </mxCell>
        <mxCell id="mNiH6PMDi3BtDX4whLDb-97" value="Игровое взаимодействие" style="text;html=1;align=center;verticalAlign=middle;resizable=0;points=[];autosize=1;strokeColor=none;fillColor=none;fontStyle=1;fontSize=20;" vertex="1" parent="1">
          <mxGeometry x="-810" y="1550" width="260" height="40" as="geometry" />
        </mxCell>
        <mxCell id="mNiH6PMDi3BtDX4whLDb-99" value="" style="endArrow=block;dashed=1;endFill=0;endSize=12;html=1;rounded=0;exitX=0.01;exitY=0.4;exitDx=0;exitDy=0;exitPerimeter=0;" edge="1" parent="1" source="mNiH6PMDi3BtDX4whLDb-90">
          <mxGeometry width="160" relative="1" as="geometry">
            <mxPoint x="-440" y="1680" as="sourcePoint" />
            <mxPoint x="-540" y="1580" as="targetPoint" />
          </mxGeometry>
        </mxCell>
        <mxCell id="mNiH6PMDi3BtDX4whLDb-100" value="Game-server" style="shape=umlLifeline;perimeter=lifelinePerimeter;whiteSpace=wrap;html=1;container=1;dropTarget=0;collapsible=0;recursiveResize=0;outlineConnect=0;portConstraint=eastwest;newEdgeStyle={&quot;curved&quot;:0,&quot;rounded&quot;:0};" vertex="1" parent="1">
          <mxGeometry x="-440" y="1600" width="100" height="300" as="geometry" />
        </mxCell>
        <mxCell id="mNiH6PMDi3BtDX4whLDb-102" value="" style="endArrow=open;html=1;rounded=0;endFill=0;" edge="1" parent="1">
          <mxGeometry width="50" height="50" relative="1" as="geometry">
            <mxPoint x="-390.5" y="1730" as="sourcePoint" />
            <mxPoint x="-680.0555555555554" y="1730" as="targetPoint" />
          </mxGeometry>
        </mxCell>
        <mxCell id="mNiH6PMDi3BtDX4whLDb-103" value="EventMessage" style="edgeLabel;html=1;align=center;verticalAlign=middle;resizable=0;points=[];" vertex="1" connectable="0" parent="mNiH6PMDi3BtDX4whLDb-102">
          <mxGeometry x="-0.0156" y="-2" relative="1" as="geometry">
            <mxPoint x="-5" y="-7" as="offset" />
          </mxGeometry>
        </mxCell>
        <mxCell id="mNiH6PMDi3BtDX4whLDb-105" value="opt" style="shape=umlFrame;whiteSpace=wrap;html=1;pointerEvents=0;dashed=1;width=50;height=20;" vertex="1" parent="1">
          <mxGeometry x="-740" y="1750" width="380" height="90" as="geometry" />
        </mxCell>
        <mxCell id="mNiH6PMDi3BtDX4whLDb-106" value="ActionMessage" style="html=1;verticalAlign=bottom;endArrow=open;curved=0;rounded=0;endFill=0;exitX=1;exitY=0.889;exitDx=0;exitDy=0;exitPerimeter=0;" edge="1" parent="1" target="mNiH6PMDi3BtDX4whLDb-100">
          <mxGeometry x="-0.0196" width="80" relative="1" as="geometry">
            <mxPoint x="-680" y="1780" as="sourcePoint" />
            <mxPoint x="-420" y="1780" as="targetPoint" />
            <mxPoint as="offset" />
          </mxGeometry>
        </mxCell>
        <mxCell id="mNiH6PMDi3BtDX4whLDb-107" value="" style="endArrow=open;html=1;rounded=0;endFill=0;" edge="1" parent="1">
          <mxGeometry width="50" height="50" relative="1" as="geometry">
            <mxPoint x="-390.44" y="1810" as="sourcePoint" />
            <mxPoint x="-679.9955555555555" y="1810" as="targetPoint" />
          </mxGeometry>
        </mxCell>
        <mxCell id="mNiH6PMDi3BtDX4whLDb-108" value="ResponseMessage" style="edgeLabel;html=1;align=center;verticalAlign=middle;resizable=0;points=[];" vertex="1" connectable="0" parent="mNiH6PMDi3BtDX4whLDb-107">
          <mxGeometry x="-0.0156" y="-2" relative="1" as="geometry">
            <mxPoint x="-5" y="-7" as="offset" />
          </mxGeometry>
        </mxCell>
      </root>
    </mxGraphModel>
  </diagram>
</mxfile>
